# xmcd CD database file
#
# Track frame offsets:
#	150
#	19321
#	42800
#	56601
#	70449
#	86282
#	98880
#	117785
#	134740
#	146178
#	177153
#	192134
#	215459
#	227179
#	244861
#	252252
#
# Disc length: 3522 seconds
#
# Revision: 0
# Processed by: cddbd v1.5.1PL0 Copyright (c) Steve Scherf et al.
# Submitted via: CDex 1.51
#
DISCID=ea0dc010
DTITLE=Dolly Parton - Little Sparrow
DYEAR=1900
DGENRE=Country
TTITLE0=Little Sparrow
TTITLE1=Shine
TTITLE2=I Don't Beleave You Have Met My Baby
TTITLE3=My Blue Tears
TTITLE4=Seven Bridges Road
TTITLE5=Bluer Pastures
TTITLE6=A Tender Lie
TTITLE7=I Get A Kick Out Of You
TTITLE8=Mountain Angel
TTITLE9=Marry Me
TTITLE10=Down From Dover
TTITLE11=The Beautiful Lie
TTITLE12=In The Sweet By And By
TTITLE13=Little Sparrow Reprise
TTITLE14=Unknown track 15
TTITLE15=Unknown track 16
EXTD=
EXTT0=
EXTT1=
EXTT2=
EXTT3=
EXTT4=
EXTT5=
EXTT6=
EXTT7=
EXTT8=
EXTT9=
EXTT10=
EXTT11=
EXTT12=
EXTT13=
EXTT14=
EXTT15=
PLAYORDER=
